<?xml version="1.0" encoding="utf-8"?>
<!-- Generator: Adobe Illustrator 16.0.0, SVG Export Plug-In . SVG Version: 6.00 Build 0)  -->
<!DOCTYPE svg PUBLIC "-//W3C//DTD SVG 1.1//EN" "http://www.w3.org/Graphics/SVG/1.1/DTD/svg11.dtd">
<svg version="1.1" id="Layer_1" xmlns="http://www.w3.org/2000/svg" xmlns:xlink="http://www.w3.org/1999/xlink" x="0px" y="0px"
	 width="861.5px" height="369.5px" viewBox="0 0 861.5 369.5" enable-background="new 0 0 861.5 369.5" xml:space="preserve">
<circle fill="#232323" cx="238.413" cy="182.001" r="151.715"/>
<g>
	<circle fill="#FFFFFF" cx="241.995" cy="118.94" r="31.662"/>
	<circle fill="#FFFFFF" cx="326.749" cy="118.94" r="31.663"/>
</g>
<g>
	<g>
		<circle fill="none" stroke="#FFFFFF" stroke-width="4" stroke-miterlimit="10" cx="502.888" cy="183.183" r="19.556"/>
		<g>
			<circle cx="511.467" cy="175.28" r="3.975"/>
			<circle cx="499.121" cy="175.28" r="3.975"/>
		</g>
		<g>
			<path fill="#FFFFFF" d="M469.853,141.725c2.277,0,4.135,0.174,5.572,0.527c1.436,0.354,2.371,0.665,2.805,0.937l-1.057,4.554
				c-0.598-0.272-1.479-0.556-2.645-0.854c-1.166-0.297-2.643-0.446-4.432-0.446c-3.742,0-6.414,0.949-8.013,2.847
				c-1.601,1.898-2.399,4.934-2.399,9.11v4.392h16.918v4.475h-16.918v37.583h-5.287v-46.611c0-5.478,1.261-9.599,3.781-12.366
				C460.701,143.106,464.592,141.725,469.853,141.725z"/>
			<path fill="#FFFFFF" d="M549.728,205.738c-3.254,0-6.129-0.514-8.623-1.543c-2.494-1.03-4.568-2.508-6.223-4.432
				c-1.654-1.926-2.916-4.231-3.783-6.916c-0.867-2.686-1.301-5.653-1.301-8.908c0-3.306,0.447-6.317,1.342-9.029
				c0.896-2.71,2.184-5.042,3.864-6.994c1.681-1.952,3.714-3.458,6.101-4.515c2.387-1.058,5.069-1.586,8.054-1.586
				c2.276,0,4.405,0.19,6.385,0.571c1.979,0.378,3.511,0.866,4.597,1.464l-1.384,4.555c-1.085-0.541-2.305-0.977-3.661-1.302
				c-1.354-0.325-3.172-0.487-5.449-0.487c-4.666,0-8.203,1.505-10.615,4.513c-2.414,3.011-3.62,7.281-3.62,12.812
				c0,2.497,0.271,4.787,0.813,6.873c0.541,2.088,1.422,3.879,2.644,5.37c1.22,1.492,2.792,2.657,4.718,3.497
				c1.923,0.844,4.27,1.26,7.036,1.26c2.276,0,4.188-0.254,5.733-0.772c1.545-0.515,2.672-0.961,3.377-1.341l1.138,4.556
				c-0.976,0.541-2.509,1.07-4.597,1.585C554.188,205.482,552.005,205.738,549.728,205.738z"/>
			<path fill="#FFFFFF" d="M602.032,203.383c-1.574,0.434-3.689,0.92-6.346,1.465c-2.658,0.541-5.91,0.812-9.76,0.812
				c-3.146,0-5.777-0.461-7.892-1.385c-2.114-0.922-3.823-2.223-5.125-3.903c-1.302-1.68-2.236-3.714-2.808-6.102
				c-0.569-2.384-0.854-5.016-0.854-7.89v-23.589h5.288v21.883c0,2.98,0.216,5.503,0.649,7.565c0.435,2.06,1.14,3.729,2.115,5.001
				c0.977,1.275,2.236,2.198,3.783,2.765c1.545,0.571,3.43,0.854,5.652,0.854c2.494,0,4.664-0.135,6.508-0.406
				c1.844-0.271,3.01-0.515,3.498-0.732v-36.93h5.287v40.592H602.032z"/>
			<path fill="#FFFFFF" d="M624.646,201.104c3.035,0,5.543-0.5,7.521-1.503c1.979-1.002,2.971-2.697,2.971-5.084
				c0-1.139-0.178-2.115-0.529-2.93c-0.355-0.813-0.936-1.545-1.748-2.196c-0.812-0.65-1.885-1.275-3.215-1.87
				c-1.328-0.596-2.969-1.304-4.922-2.117c-1.572-0.65-3.064-1.312-4.473-1.991c-1.412-0.68-2.658-1.466-3.742-2.359
				c-1.086-0.896-1.951-1.967-2.604-3.213c-0.65-1.247-0.977-2.767-0.977-4.556c0-3.416,1.287-6.181,3.863-8.295
				c2.574-2.115,6.115-3.173,10.615-3.173c2.873,0,5.248,0.246,7.117,0.733c1.871,0.487,3.186,0.921,3.945,1.301l-1.221,4.717
				c-0.648-0.326-1.75-0.76-3.295-1.302c-1.545-0.541-3.809-0.813-6.791-0.813c-1.193,0-2.318,0.123-3.377,0.367
				c-1.057,0.244-1.994,0.625-2.807,1.143c-0.812,0.514-1.463,1.167-1.951,1.956c-0.488,0.787-0.732,1.751-0.732,2.892
				c0,1.141,0.217,2.121,0.65,2.934c0.434,0.817,1.07,1.536,1.912,2.162c0.84,0.626,1.871,1.208,3.09,1.746
				c1.221,0.541,2.617,1.135,4.189,1.782c1.627,0.651,3.186,1.309,4.678,1.985c1.49,0.674,2.807,1.487,3.945,2.435
				c1.139,0.95,2.061,2.088,2.766,3.417c0.703,1.328,1.057,2.996,1.057,5c0,3.798-1.424,6.67-4.27,8.625
				c-2.848,1.953-6.74,2.928-11.672,2.928c-3.689,0-6.51-0.314-8.461-0.936c-1.951-0.623-3.254-1.1-3.904-1.425l1.383-4.799
				c0.162,0.107,0.514,0.286,1.057,0.527c0.543,0.246,1.275,0.519,2.197,0.813c0.922,0.299,2.021,0.558,3.295,0.774
				C621.483,200.996,622.96,201.104,624.646,201.104z"/>
			<path fill="#FFFFFF" d="M647.745,183.777c0-3.741,0.555-7.021,1.668-9.843c1.109-2.818,2.588-5.163,4.432-7.035
				c1.846-1.871,3.959-3.28,6.346-4.229c2.385-0.949,4.826-1.424,7.32-1.424c5.857,0,10.424,1.817,13.705,5.449
				c3.283,3.635,4.922,9.06,4.922,16.27c0,0.544-0.014,1.153-0.039,1.831c-0.029,0.679-0.068,1.29-0.123,1.831h-28.062
				c0.27,3.416,1.477,6.06,3.619,7.931c2.143,1.871,5.248,2.806,9.314,2.806c2.385,0,4.566-0.217,6.549-0.652
				c1.977-0.431,3.535-0.893,4.676-1.381l1.303,8.053c-0.545,0.271-1.289,0.556-2.238,0.853c-0.949,0.299-2.033,0.57-3.254,0.813
				c-1.221,0.244-2.535,0.449-3.945,0.61c-1.41,0.162-2.848,0.242-4.312,0.242c-3.738,0-6.992-0.555-9.758-1.666
				c-2.766-1.109-5.045-2.657-6.834-4.635c-1.791-1.98-3.119-4.312-3.984-6.996C648.177,189.92,647.745,186.977,647.745,183.777z
				 M676.294,179.386c0-1.354-0.189-2.645-0.568-3.864c-0.379-1.22-0.936-2.277-1.668-3.172c-0.73-0.896-1.627-1.6-2.686-2.114
				c-1.057-0.515-2.314-0.773-3.781-0.773c-1.52,0-2.848,0.285-3.984,0.853c-1.141,0.571-2.105,1.316-2.891,2.239
				c-0.783,0.921-1.395,1.978-1.826,3.17c-0.438,1.195-0.734,2.415-0.896,3.662L676.294,179.386L676.294,179.386z"/>
			<path fill="#FFFFFF" d="M731.282,162.303c-4.383,16.162-9.473,30.803-15.264,43.924c-1.084,2.442-2.197,4.529-3.34,6.264
				c-1.141,1.738-2.414,3.175-3.826,4.312c-1.412,1.139-2.986,1.963-4.725,2.482c-1.734,0.514-3.742,0.771-6.023,0.771
				c-1.521,0-3.027-0.162-4.521-0.488s-2.617-0.68-3.379-1.058l1.789-7.892c1.961,0.759,3.896,1.139,5.803,1.139
				c2.561,0,4.562-0.609,6.004-1.828c1.445-1.222,2.713-3.105,3.803-5.656c-3.105-5.964-6.086-12.472-8.945-19.521
				c-2.861-7.047-5.406-14.531-7.639-22.451h10.494c0.543,2.277,1.209,4.748,2.002,7.403c0.785,2.657,1.645,5.356,2.57,8.095
				c0.924,2.738,1.902,5.462,2.938,8.174c1.033,2.713,2.068,5.233,3.105,7.565c1.729-4.826,3.346-9.965,4.855-15.414
				c1.512-5.451,2.891-10.724,4.129-15.823h10.17V162.303z"/>
			<path fill="#FFFFFF" d="M736.409,183.777c0-3.741,0.555-7.021,1.666-9.843c1.111-2.818,2.588-5.163,4.434-7.035
				c1.842-1.871,3.957-3.28,6.344-4.229c2.387-0.949,4.826-1.424,7.322-1.424c5.857,0,10.422,1.817,13.707,5.449
				c3.279,3.635,4.92,9.06,4.92,16.27c0,0.544-0.016,1.153-0.041,1.831c-0.027,0.679-0.068,1.29-0.121,1.831h-28.064
				c0.271,3.416,1.477,6.06,3.621,7.931c2.143,1.871,5.246,2.806,9.312,2.806c2.387,0,4.568-0.217,6.547-0.652
				c1.98-0.431,3.539-0.893,4.68-1.381l1.301,8.053c-0.545,0.271-1.289,0.556-2.236,0.853c-0.949,0.299-2.031,0.57-3.254,0.813
				c-1.221,0.244-2.533,0.449-3.945,0.61c-1.41,0.164-2.846,0.242-4.312,0.242c-3.74,0-6.994-0.555-9.76-1.666
				c-2.766-1.109-5.043-2.657-6.832-4.635c-1.791-1.98-3.121-4.312-3.988-6.996C736.841,189.92,736.409,186.977,736.409,183.777z
				 M764.96,179.386c0-1.354-0.191-2.645-0.572-3.864c-0.377-1.22-0.936-2.277-1.666-3.172c-0.732-0.896-1.625-1.6-2.686-2.114
				c-1.059-0.515-2.316-0.773-3.781-0.773c-1.52,0-2.85,0.285-3.986,0.853c-1.139,0.571-2.102,1.316-2.887,2.239
				c-0.787,0.921-1.396,1.978-1.83,3.17c-0.438,1.195-0.732,2.415-0.896,3.662L764.96,179.386L764.96,179.386z"/>
		</g>
		<circle fill="#FFFFFF" cx="500.476" cy="173.704" r="1.355"/>
		<circle fill="#FFFFFF" cx="512.822" cy="173.704" r="1.355"/>
	</g>
	<rect x="452.077" y="222.273" fill="none" width="320.406" height="32.203"/>
	<text transform="matrix(1 0 0 1 452.0781 233.9824)" fill="#FFFFFF" font-family="'Ubuntu-Light'" font-size="15.0905">follow focus reimagined</text>
</g>
</svg>
