<?xml version="1.0" encoding="utf-8"?>
<!-- Generator: Adobe Illustrator 16.0.0, SVG Export Plug-In . SVG Version: 6.00 Build 0)  -->
<!DOCTYPE svg PUBLIC "-//W3C//DTD SVG 1.1//EN" "http://www.w3.org/Graphics/SVG/1.1/DTD/svg11.dtd">
<svg version="1.1" id="Layer_1" xmlns="http://www.w3.org/2000/svg" xmlns:xlink="http://www.w3.org/1999/xlink" x="0px" y="0px"
	 width="337.059px" height="123.912px" viewBox="34.382 0 337.059 123.912" enable-background="new 34.382 0 337.059 123.912"
	 xml:space="preserve">
<g>
	<g>
		<circle fill="none" stroke="#FFFFFF" stroke-width="4" stroke-miterlimit="10" cx="94.534" cy="48.183" r="19.556"/>
		<g>
			<circle cx="103.114" cy="40.28" r="3.975"/>
			<circle cx="90.768" cy="40.28" r="3.975"/>
		</g>
		<g>
			<path fill="#FFFFFF" d="M61.499,6.725c2.278,0,4.135,0.174,5.573,0.527c1.435,0.354,2.371,0.665,2.805,0.937l-1.057,4.554
				c-0.598-0.272-1.478-0.556-2.644-0.854c-1.166-0.297-2.643-0.446-4.433-0.446c-3.741,0-6.413,0.949-8.012,2.847
				c-1.6,1.898-2.4,4.934-2.4,9.11v4.392H68.25v4.475H51.331v37.582h-5.287v-46.61c0-5.478,1.261-9.599,3.782-12.366
				C52.348,8.106,56.239,6.725,61.499,6.725z"/>
			<path fill="#FFFFFF" d="M141.375,70.739c-3.254,0-6.129-0.514-8.623-1.543c-2.495-1.031-4.569-2.508-6.223-4.433
				c-1.655-1.926-2.916-4.231-3.783-6.916c-0.868-2.686-1.301-5.653-1.301-8.908c0-3.306,0.447-6.317,1.342-9.029
				c0.895-2.71,2.183-5.042,3.864-6.994c1.68-1.952,3.714-3.458,6.101-4.515c2.386-1.058,5.069-1.586,8.053-1.586
				c2.277,0,4.405,0.19,6.385,0.571c1.979,0.378,3.51,0.866,4.596,1.464l-1.383,4.555c-1.085-0.541-2.305-0.977-3.661-1.302
				c-1.355-0.325-3.172-0.487-5.449-0.487c-4.666,0-8.203,1.505-10.616,4.513c-2.414,3.011-3.62,7.281-3.62,12.812
				c0,2.497,0.271,4.787,0.813,6.873c0.542,2.088,1.423,3.879,2.644,5.37c1.22,1.492,2.792,2.657,4.718,3.497
				c1.923,0.844,4.27,1.261,7.036,1.261c2.277,0,4.189-0.255,5.734-0.773c1.545-0.515,2.671-0.961,3.376-1.341l1.138,4.556
				c-0.976,0.541-2.509,1.07-4.596,1.585C145.835,70.483,143.652,70.739,141.375,70.739z"/>
			<path fill="#FFFFFF" d="M193.679,68.383c-1.574,0.434-3.689,0.92-6.346,1.464c-2.657,0.541-5.91,0.812-9.76,0.812
				c-3.146,0-5.776-0.461-7.891-1.385c-2.114-0.921-3.823-2.222-5.125-3.903c-1.301-1.68-2.236-3.714-2.807-6.102
				c-0.57-2.384-0.854-5.016-0.854-7.89V27.791h5.288v21.883c0,2.98,0.216,5.503,0.65,7.565c0.434,2.06,1.139,3.729,2.115,5.001
				c0.976,1.275,2.236,2.198,3.783,2.765c1.545,0.571,3.429,0.855,5.653,0.855c2.494,0,4.664-0.135,6.507-0.407
				c1.844-0.271,3.01-0.515,3.498-0.732v-36.93h5.287v40.592H193.679z"/>
			<path fill="#FFFFFF" d="M216.292,66.104c3.035,0,5.543-0.501,7.522-1.504c1.979-1.002,2.97-2.697,2.97-5.084
				c0-1.139-0.177-2.115-0.529-2.93c-0.354-0.813-0.935-1.545-1.748-2.196c-0.812-0.65-1.885-1.275-3.215-1.87
				c-1.328-0.596-2.969-1.304-4.921-2.117c-1.573-0.65-3.064-1.312-4.473-1.991c-1.412-0.68-2.658-1.466-3.742-2.359
				c-1.086-0.896-1.952-1.967-2.604-3.213c-0.65-1.247-0.977-2.767-0.977-4.556c0-3.416,1.287-6.181,3.863-8.295
				c2.574-2.115,6.115-3.173,10.615-3.173c2.873,0,5.247,0.246,7.117,0.733c1.87,0.487,3.186,0.921,3.944,1.301l-1.22,4.717
				c-0.649-0.326-1.75-0.76-3.295-1.302c-1.545-0.541-3.81-0.813-6.791-0.813c-1.193,0-2.319,0.123-3.377,0.367
				c-1.057,0.244-1.994,0.625-2.807,1.143c-0.812,0.514-1.464,1.167-1.951,1.956c-0.488,0.787-0.732,1.751-0.732,2.892
				c0,1.141,0.216,2.121,0.65,2.934c0.434,0.817,1.07,1.536,1.912,2.162c0.84,0.626,1.871,1.208,3.09,1.746
				c1.221,0.541,2.617,1.135,4.189,1.782c1.627,0.651,3.186,1.309,4.678,1.985c1.49,0.674,2.807,1.487,3.945,2.435
				c1.139,0.95,2.06,2.088,2.765,3.417c0.704,1.328,1.058,2.996,1.058,5c0,3.798-1.424,6.671-4.271,8.625
				c-2.847,1.953-6.739,2.928-11.671,2.928c-3.689,0-6.51-0.314-8.461-0.936c-1.952-0.623-3.254-1.099-3.904-1.424l1.383-4.799
				c0.162,0.107,0.514,0.286,1.057,0.527c0.543,0.246,1.274,0.519,2.197,0.813c0.922,0.299,2.021,0.558,3.295,0.774
				C213.131,65.996,214.607,66.104,216.292,66.104z"/>
			<path fill="#FFFFFF" d="M239.393,48.777c0-3.741,0.555-7.021,1.668-9.843c1.108-2.818,2.588-5.163,4.432-7.035
				c1.846-1.871,3.959-3.28,6.346-4.229c2.385-0.949,4.825-1.424,7.319-1.424c5.858,0,10.425,1.817,13.706,5.449
				c3.283,3.635,4.922,9.06,4.922,16.27c0,0.544-0.014,1.153-0.039,1.831c-0.029,0.679-0.068,1.29-0.123,1.831h-28.062
				c0.269,3.416,1.476,6.06,3.619,7.931c2.143,1.871,5.247,2.806,9.313,2.806c2.385,0,4.567-0.217,6.549-0.652
				c1.978-0.431,3.535-0.893,4.676-1.381l1.304,8.053c-0.545,0.271-1.289,0.556-2.238,0.853c-0.95,0.299-2.033,0.57-3.254,0.813
				c-1.221,0.244-2.535,0.449-3.945,0.611c-1.41,0.162-2.848,0.242-4.312,0.242c-3.739,0-6.992-0.556-9.758-1.667
				c-2.766-1.109-5.045-2.657-6.834-4.635c-1.791-1.98-3.119-4.312-3.984-6.996C239.823,54.92,239.393,51.977,239.393,48.777z
				 M267.941,44.386c0-1.354-0.19-2.645-0.568-3.864c-0.38-1.22-0.936-2.277-1.669-3.172c-0.729-0.896-1.627-1.6-2.685-2.114
				c-1.057-0.515-2.315-0.773-3.781-0.773c-1.52,0-2.848,0.285-3.985,0.853c-1.14,0.571-2.104,1.316-2.89,2.239
				c-0.784,0.921-1.396,1.978-1.827,3.17c-0.437,1.195-0.734,2.415-0.896,3.662L267.941,44.386L267.941,44.386z"/>
			<path fill="#FFFFFF" d="M322.929,27.303c-4.383,16.162-9.473,30.803-15.264,43.924c-1.084,2.442-2.197,4.529-3.34,6.264
				c-1.14,1.737-2.414,3.174-3.826,4.312c-1.412,1.138-2.986,1.963-4.724,2.482c-1.735,0.514-3.743,0.771-6.024,0.771
				c-1.521,0-3.026-0.162-4.521-0.487c-1.494-0.326-2.617-0.68-3.379-1.058l1.789-7.891c1.961,0.758,3.896,1.138,5.803,1.138
				c2.56,0,4.562-0.61,6.004-1.828c1.445-1.222,2.712-3.105,3.802-5.656c-3.104-5.965-6.086-12.472-8.944-19.522
				c-2.861-7.047-5.406-14.531-7.639-22.451h10.493c0.543,2.277,1.21,4.748,2.002,7.403c0.785,2.657,1.646,5.356,2.571,8.095
				c0.923,2.738,1.902,5.462,2.938,8.174c1.033,2.713,2.068,5.233,3.104,7.565c1.729-4.826,3.346-9.965,4.856-15.414
				c1.512-5.451,2.89-10.724,4.129-15.823h10.169V27.303z"/>
			<path fill="#FFFFFF" d="M328.056,48.777c0-3.741,0.556-7.021,1.666-9.843c1.111-2.818,2.588-5.163,4.435-7.035
				c1.842-1.871,3.957-3.28,6.344-4.229c2.387-0.949,4.826-1.424,7.322-1.424c5.856,0,10.422,1.817,13.707,5.449
				c3.278,3.635,4.92,9.06,4.92,16.27c0,0.544-0.017,1.153-0.041,1.831c-0.027,0.679-0.068,1.29-0.121,1.831h-28.064
				c0.271,3.416,1.476,6.06,3.621,7.931c2.142,1.871,5.246,2.806,9.312,2.806c2.387,0,4.567-0.217,6.547-0.652
				c1.979-0.431,3.539-0.893,4.68-1.381l1.301,8.053c-0.545,0.271-1.289,0.556-2.237,0.853c-0.949,0.299-2.031,0.57-3.254,0.813
				c-1.22,0.244-2.533,0.449-3.945,0.611c-1.41,0.163-2.846,0.242-4.312,0.242c-3.741,0-6.995-0.556-9.76-1.667
				c-2.766-1.109-5.043-2.657-6.832-4.635c-1.791-1.98-3.121-4.312-3.988-6.996C328.487,54.92,328.056,51.977,328.056,48.777z
				 M356.606,44.386c0-1.354-0.191-2.645-0.572-3.864c-0.377-1.22-0.935-2.277-1.666-3.172c-0.732-0.896-1.625-1.6-2.685-2.114
				c-1.059-0.515-2.317-0.773-3.782-0.773c-1.519,0-2.849,0.285-3.986,0.853c-1.139,0.571-2.102,1.316-2.887,2.239
				c-0.787,0.921-1.396,1.978-1.83,3.17c-0.437,1.195-0.732,2.415-0.896,3.662L356.606,44.386L356.606,44.386z"/>
		</g>
		<circle fill="#FFFFFF" cx="92.123" cy="38.704" r="1.355"/>
		<circle fill="#FFFFFF" cx="104.469" cy="38.704" r="1.355"/>
	</g>
	<rect x="43.724" y="87.273" fill="none" width="320.406" height="32.204"/>
	<text transform="matrix(1 0 0 1 43.7246 98.9829)" fill="#FFFFFF" font-family="'Ubuntu-Light'" font-size="15.0905">follow focus reimagined</text>
</g>
</svg>
